<svg width="281" height="72" viewBox="0 0 281 72" fill="none" xmlns="http://www.w3.org/2000/svg">
<path d="M5.42153 26.9127C5.37397 26.5111 5.1811 26.1993 4.84292 25.9774C4.50473 25.7554 4.08993 25.6445 3.5985 25.6445C3.23918 25.6445 2.92477 25.7026 2.65528 25.8189C2.38843 25.9351 2.17971 26.0949 2.02911 26.2984C1.88115 26.5018 1.80718 26.733 1.80718 26.9919C1.80718 27.2086 1.8587 27.3948 1.96174 27.5507C2.06742 27.704 2.20217 27.8321 2.36597 27.9352C2.52978 28.0355 2.70152 28.1188 2.88118 28.1848C3.06084 28.2482 3.22597 28.2998 3.37657 28.3394L4.20089 28.5613C4.41226 28.6168 4.6474 28.6934 4.90633 28.7912C5.16789 28.8889 5.41757 29.0224 5.65535 29.1915C5.89578 29.3579 6.09394 29.5719 6.24982 29.8335C6.4057 30.095 6.48364 30.4161 6.48364 30.7965C6.48364 31.2351 6.36871 31.6314 6.13885 31.9854C5.91163 32.3395 5.57873 32.6209 5.14015 32.8296C4.70421 33.0383 4.17447 33.1427 3.55094 33.1427C2.96969 33.1427 2.46637 33.0489 2.041 32.8613C1.61827 32.6737 1.28537 32.4121 1.0423 32.0766C0.801868 31.7411 0.665802 31.3513 0.634097 30.9075H1.64865C1.67507 31.214 1.77811 31.4676 1.95777 31.6684C2.14008 31.8666 2.36994 32.0145 2.64735 32.1123C2.92741 32.2074 3.22861 32.2549 3.55094 32.2549C3.92612 32.2549 4.26298 32.1942 4.56154 32.0726C4.86009 31.9485 5.09655 31.7767 5.27093 31.5574C5.44531 31.3355 5.5325 31.0766 5.5325 30.7807C5.5325 30.5112 5.4572 30.2919 5.3066 30.1228C5.156 29.9537 4.95785 29.8163 4.71213 29.7106C4.46642 29.6049 4.20089 29.5125 3.91555 29.4332L2.91685 29.1479C2.28275 28.9656 1.78076 28.7053 1.41087 28.3671C1.04098 28.0289 0.856031 27.5864 0.856031 27.0395C0.856031 26.5851 0.978887 26.1887 1.2246 25.8506C1.47295 25.5097 1.80586 25.2455 2.2233 25.0579C2.64339 24.8677 3.11236 24.7726 3.63021 24.7726C4.15334 24.7726 4.61834 24.8664 5.02522 25.054C5.4321 25.2389 5.75443 25.4926 5.99222 25.8149C6.23264 26.1372 6.35946 26.5031 6.37267 26.9127H5.42153ZM8.0996 33V24.8836H12.998V25.7554H9.08245V28.4979H12.7444V29.3698H9.08245V32.1281H13.0614V33H8.0996ZM21.3007 27.4199H20.3179C20.2597 27.1372 20.158 26.8889 20.0127 26.6749C19.87 26.4609 19.6956 26.2812 19.4896 26.1359C19.2861 25.9879 19.0602 25.877 18.8119 25.803C18.5635 25.729 18.3046 25.692 18.0351 25.692C17.5437 25.692 17.0985 25.8162 16.6995 26.0646C16.3032 26.3129 15.9875 26.6788 15.7524 27.1623C15.5199 27.6458 15.4036 28.239 15.4036 28.9418C15.4036 29.6446 15.5199 30.2377 15.7524 30.7212C15.9875 31.2047 16.3032 31.5706 16.6995 31.819C17.0985 32.0673 17.5437 32.1915 18.0351 32.1915C18.3046 32.1915 18.5635 32.1545 18.8119 32.0806C19.0602 32.0066 19.2861 31.8969 19.4896 31.7516C19.6956 31.6037 19.87 31.4227 20.0127 31.2087C20.158 30.992 20.2597 30.7437 20.3179 30.4636H21.3007C21.2267 30.8784 21.092 31.2496 20.8965 31.5772C20.701 31.9049 20.4579 32.1836 20.1673 32.4135C19.8766 32.6407 19.5503 32.8137 19.1884 32.9326C18.829 33.0515 18.4446 33.111 18.0351 33.111C17.3429 33.111 16.7273 32.9419 16.1883 32.6037C15.6493 32.2655 15.2253 31.7846 14.9161 31.1611C14.607 30.5376 14.4525 29.7978 14.4525 28.9418C14.4525 28.0857 14.607 27.346 14.9161 26.7224C15.2253 26.0989 15.6493 25.6181 16.1883 25.2799C16.7273 24.9417 17.3429 24.7726 18.0351 24.7726C18.4446 24.7726 18.829 24.832 19.1884 24.9509C19.5503 25.0698 19.8766 25.2442 20.1673 25.4741C20.4579 25.7013 20.701 25.9787 20.8965 26.3063C21.092 26.6313 21.2267 27.0025 21.3007 27.4199ZM22.8889 33V24.8836H25.6314C26.2655 24.8836 26.786 24.9919 27.1929 25.2085C27.5997 25.4225 27.9009 25.7171 28.0964 26.0923C28.292 26.4675 28.3897 26.8942 28.3897 27.3724C28.3897 27.8506 28.292 28.2747 28.0964 28.6445C27.9009 29.0144 27.6011 29.3051 27.1968 29.5164C26.7926 29.7252 26.2761 29.8295 25.6472 29.8295H23.4279V28.9418H25.6155C26.0488 28.9418 26.3976 28.8784 26.6618 28.7516C26.9286 28.6247 27.1215 28.4451 27.2404 28.2126C27.3619 27.9774 27.4227 27.6974 27.4227 27.3724C27.4227 27.0474 27.3619 26.7634 27.2404 26.5203C27.1189 26.2773 26.9247 26.0897 26.6578 25.9576C26.391 25.8228 26.0383 25.7554 25.5997 25.7554H23.8718V33H22.8889ZM26.7094 29.3539L28.7068 33H27.5654L25.5997 29.3539H26.7094ZM30.0275 33V24.8836H34.9259V25.7554H31.0103V28.4979H34.6722V29.3698H31.0103V32.1281H34.9893V33H30.0275ZM36.2535 25.7554V24.8836H42.3408V25.7554H39.7886V33H38.8057V25.7554H36.2535ZM43.2424 33H42.212L45.1923 24.8836H46.2068L49.1871 33H48.1567L45.7313 26.1676H45.6679L43.2424 33ZM43.6229 29.8295H47.7762V30.7014H43.6229V29.8295ZM50.4513 33V24.8836H53.1938C53.8279 24.8836 54.3484 24.9919 54.7553 25.2085C55.1621 25.4225 55.4633 25.7171 55.6589 26.0923C55.8544 26.4675 55.9521 26.8942 55.9521 27.3724C55.9521 27.8506 55.8544 28.2747 55.6589 28.6445C55.4633 29.0144 55.1635 29.3051 54.7592 29.5164C54.355 29.7252 53.8385 29.8295 53.2097 29.8295H50.9903V28.9418H53.1779C53.6112 28.9418 53.96 28.8784 54.2242 28.7516C54.4911 28.6247 54.6839 28.4451 54.8028 28.2126C54.9244 27.9774 54.9851 27.6974 54.9851 27.3724C54.9851 27.0474 54.9244 26.7634 54.8028 26.5203C54.6813 26.2773 54.4871 26.0897 54.2202 25.9576C53.9534 25.8228 53.6007 25.7554 53.1621 25.7554H51.4342V33H50.4513ZM54.2718 29.3539L56.2692 33H55.1278L53.1621 29.3539H54.2718ZM58.5727 24.8836V33H57.5899V24.8836H58.5727ZM60.8763 33H59.8459L62.8261 24.8836H63.8407L66.8209 33H65.7905L63.3651 26.1676H63.3017L60.8763 33ZM61.2567 29.8295H65.4101V30.7014H61.2567V29.8295ZM3.48753 47H0.98285V38.8836H3.5985C4.38584 38.8836 5.05957 39.046 5.61968 39.371C6.1798 39.6934 6.60914 40.157 6.90769 40.7621C7.20625 41.3645 7.35553 42.0857 7.35553 42.9259C7.35553 43.7714 7.20493 44.4993 6.90373 45.1096C6.60253 45.7173 6.16395 46.1849 5.58798 46.5125C5.01201 46.8375 4.31186 47 3.48753 47ZM1.9657 46.1281H3.42412C4.09521 46.1281 4.65137 45.9987 5.09259 45.7397C5.53382 45.4808 5.86275 45.1122 6.0794 44.634C6.29605 44.1558 6.40438 43.5864 6.40438 42.9259C6.40438 42.2707 6.29738 41.7066 6.08337 41.2337C5.86936 40.7581 5.54967 40.3935 5.1243 40.1399C4.69892 39.8836 4.16919 39.7554 3.53509 39.7554H1.9657V46.1281ZM8.95563 47H7.92522L10.9055 38.8836H11.92L14.9003 47H13.8699L11.4445 40.1676H11.3811L8.95563 47ZM9.33609 43.8295H13.4894V44.7014H9.33609V43.8295ZM19.0259 47V38.8836H24.495V40.2984H20.7419V42.2324H24.2136V43.6472H20.7419V45.5852H24.5108V47H19.0259ZM28.7365 47H25.8593V38.8836H28.7603C29.5767 38.8836 30.2795 39.046 30.8686 39.371C31.4578 39.6934 31.9109 40.157 32.228 40.7621C32.5477 41.3671 32.7075 42.091 32.7075 42.9339C32.7075 43.7793 32.5477 44.5059 32.228 45.1136C31.9109 45.7212 31.4552 46.1876 30.8607 46.5125C30.2689 46.8375 29.5608 47 28.7365 47ZM27.5753 45.5297H28.6651C29.1724 45.5297 29.5991 45.4399 29.9452 45.2602C30.294 45.0779 30.5555 44.7965 30.7299 44.4161C30.9069 44.033 30.9955 43.5389 30.9955 42.9339C30.9955 42.3341 30.9069 41.844 30.7299 41.4635C30.5555 41.0831 30.2953 40.803 29.9492 40.6234C29.6031 40.4437 29.1764 40.3539 28.6691 40.3539H27.5753V45.5297ZM38.992 38.8836H40.708V44.1545C40.708 44.7463 40.5667 45.2642 40.284 45.708C40.0039 46.1519 39.6116 46.498 39.1069 46.7464C38.6023 46.9921 38.0144 47.1149 37.3434 47.1149C36.6696 47.1149 36.0804 46.9921 35.5758 46.7464C35.0712 46.498 34.6788 46.1519 34.3988 45.708C34.1187 45.2642 33.9787 44.7463 33.9787 44.1545V38.8836H35.6947V44.0079C35.6947 44.317 35.7621 44.5918 35.8968 44.8322C36.0342 45.0726 36.2271 45.2615 36.4754 45.3989C36.7238 45.5363 37.0131 45.605 37.3434 45.605C37.6763 45.605 37.9656 45.5363 38.2113 45.3989C38.4596 45.2615 38.6512 45.0726 38.7859 44.8322C38.9233 44.5918 38.992 44.317 38.992 44.0079V38.8836ZM49.2812 41.7251H47.5454C47.5137 41.5005 47.4489 41.3011 47.3512 41.1267C47.2534 40.9497 47.1279 40.7991 46.9747 40.6749C46.8215 40.5507 46.6444 40.4556 46.4436 40.3895C46.2455 40.3235 46.0302 40.2905 45.7977 40.2905C45.3776 40.2905 45.0116 40.3948 44.6999 40.6035C44.3881 40.8096 44.1464 41.1108 43.9746 41.5071C43.8029 41.9008 43.717 42.379 43.717 42.9418C43.717 43.5204 43.8029 44.0065 43.9746 44.4002C44.149 44.7939 44.3921 45.0911 44.7038 45.2919C45.0156 45.4927 45.3762 45.5931 45.7858 45.5931C46.0156 45.5931 46.2283 45.5627 46.4238 45.5019C46.622 45.4412 46.7977 45.3527 46.9509 45.2364C47.1042 45.1175 47.231 44.9735 47.3314 44.8044C47.4344 44.6353 47.5058 44.4425 47.5454 44.2258L49.2812 44.2338C49.2363 44.6063 49.124 44.9656 48.9444 45.3117C48.7673 45.6552 48.5282 45.963 48.227 46.2351C47.9285 46.5046 47.5718 46.7186 47.157 46.8771C46.7448 47.033 46.2785 47.111 45.758 47.111C45.0341 47.111 44.3868 46.9472 43.8161 46.6195C43.2481 46.2919 42.7989 45.8177 42.4686 45.1968C42.141 44.5759 41.9772 43.8242 41.9772 42.9418C41.9772 42.0567 42.1437 41.3037 42.4766 40.6828C42.8095 40.0619 43.2613 39.589 43.832 39.264C44.4026 38.9364 45.0447 38.7726 45.758 38.7726C46.2283 38.7726 46.6643 38.8386 47.0658 38.9707C47.4701 39.1029 47.8281 39.2957 48.1399 39.5494C48.4516 39.8004 48.7053 40.1082 48.9008 40.4728C49.0989 40.8374 49.2257 41.2548 49.2812 41.7251ZM51.7582 47H49.9193L52.7212 38.8836H54.9326L57.7306 47H55.8917L53.8586 40.7383H53.7952L51.7582 47ZM51.6432 43.8097H55.9868V45.1492H51.6432V43.8097ZM65.4874 41.7251H63.7515C63.7198 41.5005 63.6551 41.3011 63.5573 41.1267C63.4596 40.9497 63.3341 40.7991 63.1808 40.6749C63.0276 40.5507 62.8506 40.4556 62.6498 40.3895C62.4516 40.3235 62.2363 40.2905 62.0038 40.2905C61.5837 40.2905 61.2178 40.3948 60.906 40.6035C60.5942 40.8096 60.3525 41.1108 60.1808 41.5071C60.009 41.9008 59.9232 42.379 59.9232 42.9418C59.9232 43.5204 60.009 44.0065 60.1808 44.4002C60.3551 44.7939 60.5982 45.0911 60.91 45.2919C61.2217 45.4927 61.5824 45.5931 61.9919 45.5931C62.2218 45.5931 62.4344 45.5627 62.63 45.5019C62.8281 45.4412 63.0038 45.3527 63.157 45.2364C63.3103 45.1175 63.4371 44.9735 63.5375 44.8044C63.6405 44.6353 63.7119 44.4425 63.7515 44.2258L65.4874 44.2338C65.4424 44.6063 65.3302 44.9656 65.1505 45.3117C64.9735 45.6552 64.7344 45.963 64.4332 46.2351C64.1346 46.5046 63.7779 46.7186 63.3631 46.8771C62.951 47.033 62.4846 47.111 61.9642 47.111C61.2402 47.111 60.5929 46.9472 60.0222 46.6195C59.4542 46.2919 59.005 45.8177 58.6748 45.1968C58.3472 44.5759 58.1834 43.8242 58.1834 42.9418C58.1834 42.0567 58.3498 41.3037 58.6827 40.6828C59.0156 40.0619 59.4674 39.589 60.0381 39.264C60.6088 38.9364 61.2508 38.7726 61.9642 38.7726C62.4344 38.7726 62.8704 38.8386 63.272 38.9707C63.6762 39.1029 64.0342 39.2957 64.346 39.5494C64.6577 39.8004 64.9114 40.1082 65.1069 40.4728C65.3051 40.8374 65.4319 41.2548 65.4874 41.7251ZM61.5401 46.9762H62.3169L62.2535 47.321C62.5256 47.3633 62.7475 47.465 62.9193 47.6262C63.0936 47.7873 63.1821 48.0066 63.1848 48.284C63.1874 48.6777 63.0051 48.9908 62.6379 49.2233C62.2706 49.4584 61.7554 49.576 61.0923 49.576L61.0764 48.823C61.4093 48.823 61.6696 48.7821 61.8572 48.7002C62.0474 48.6209 62.1465 48.4967 62.1544 48.3276C62.1597 48.1665 62.0976 48.0436 61.9681 47.9591C61.8387 47.8745 61.6365 47.8151 61.3618 47.7807L61.5401 46.9762ZM67.9643 47H66.1254L68.9273 38.8836H71.1387L73.9367 47H72.0978L70.0647 40.7383H70.0013L67.9643 47ZM67.8494 43.8097H72.1929V45.1492H67.8494V43.8097ZM68.8956 38.083L67.9603 38.0711C67.9603 37.5665 68.0845 37.1794 68.3329 36.9099C68.5812 36.6404 68.8864 36.5044 69.2483 36.5017C69.4333 36.5017 69.5918 36.5321 69.7239 36.5929C69.856 36.651 69.9762 36.7197 70.0846 36.799C70.1929 36.8782 70.2959 36.9482 70.3937 37.009C70.4914 37.0671 70.5971 37.0962 70.7107 37.0962C70.864 37.0936 70.9802 37.0368 71.0595 36.9258C71.1414 36.8122 71.1823 36.6642 71.1823 36.4819L72.1057 36.5097C72.1005 37.009 71.9736 37.3948 71.7253 37.6669C71.4769 37.9364 71.1731 38.0724 70.8138 38.0751C70.6183 38.0777 70.4531 38.0487 70.3184 37.9879C70.1863 37.9271 70.07 37.8584 69.9696 37.7818C69.8692 37.7026 69.7715 37.6325 69.6764 37.5718C69.5812 37.511 69.4742 37.4806 69.3553 37.4806C69.218 37.4806 69.107 37.5348 69.0224 37.6431C68.9379 37.7514 68.8956 37.8981 68.8956 38.083ZM81.9907 42.9418C81.9907 43.8269 81.8229 44.5799 81.4874 45.2007C81.1545 45.8216 80.7001 46.2959 80.1241 46.6235C79.5508 46.9485 78.9061 47.111 78.1901 47.111C77.4688 47.111 76.8215 46.9472 76.2482 46.6195C75.6748 46.2919 75.2217 45.8177 74.8888 45.1968C74.5559 44.5759 74.3895 43.8242 74.3895 42.9418C74.3895 42.0567 74.5559 41.3037 74.8888 40.6828C75.2217 40.0619 75.6748 39.589 76.2482 39.264C76.8215 38.9364 77.4688 38.7726 78.1901 38.7726C78.9061 38.7726 79.5508 38.9364 80.1241 39.264C80.7001 39.589 81.1545 40.0619 81.4874 40.6828C81.8229 41.3037 81.9907 42.0567 81.9907 42.9418ZM80.2509 42.9418C80.2509 42.3684 80.165 41.885 79.9933 41.4913C79.8242 41.0976 79.5851 40.7991 79.276 40.5956C78.9669 40.3922 78.6049 40.2905 78.1901 40.2905C77.7753 40.2905 77.4133 40.3922 77.1042 40.5956C76.7951 40.7991 76.5547 41.0976 76.3829 41.4913C76.2138 41.885 76.1293 42.3684 76.1293 42.9418C76.1293 43.5151 76.2138 43.9986 76.3829 44.3923C76.5547 44.7859 76.7951 45.0845 77.1042 45.2879C77.4133 45.4914 77.7753 45.5931 78.1901 45.5931C78.6049 45.5931 78.9669 45.4914 79.276 45.2879C79.5851 45.0845 79.8242 44.7859 79.9933 44.3923C80.165 43.9986 80.2509 43.5151 80.2509 42.9418ZM90.0388 42.5058V43.3777H86.4879V42.5058H90.0388ZM99.3888 40.9127C99.3412 40.5111 99.1483 40.1993 98.8101 39.9774C98.472 39.7554 98.0571 39.6445 97.5657 39.6445C97.2064 39.6445 96.892 39.7026 96.6225 39.8189C96.3557 39.9351 96.1469 40.0949 95.9963 40.2984C95.8484 40.5018 95.7744 40.733 95.7744 40.9919C95.7744 41.2086 95.8259 41.3948 95.929 41.5507C96.0346 41.704 96.1694 41.8321 96.3332 41.9352C96.497 42.0355 96.6687 42.1188 96.8484 42.1848C97.0281 42.2482 97.1932 42.2998 97.3438 42.3394L98.1681 42.5613C98.3795 42.6168 98.6146 42.6934 98.8735 42.7912C99.1351 42.8889 99.3848 43.0224 99.6226 43.1915C99.863 43.3579 100.061 43.5719 100.217 43.8335C100.373 44.095 100.451 44.4161 100.451 44.7965C100.451 45.2351 100.336 45.6314 100.106 45.9854C99.8789 46.3395 99.546 46.6209 99.1074 46.8296C98.6714 47.0383 98.1417 47.1427 97.5182 47.1427C96.9369 47.1427 96.4336 47.0489 96.0082 46.8613C95.5855 46.6737 95.2526 46.4121 95.0095 46.0766C94.7691 45.7411 94.633 45.3513 94.6013 44.9075H95.6159C95.6423 45.214 95.7453 45.4676 95.925 45.6684C96.1073 45.8666 96.3372 46.0145 96.6146 46.1123C96.8946 46.2074 97.1958 46.2549 97.5182 46.2549C97.8933 46.2549 98.2302 46.1942 98.5288 46.0726C98.8273 45.9485 99.0638 45.7767 99.2382 45.5574C99.4125 45.3355 99.4997 45.0766 99.4997 44.7807C99.4997 44.5112 99.4244 44.2919 99.2738 44.1228C99.1232 43.9537 98.9251 43.8163 98.6794 43.7106C98.4336 43.6049 98.1681 43.5125 97.8828 43.4332L96.8841 43.1479C96.25 42.9656 95.748 42.7053 95.3781 42.3671C95.0082 42.0289 94.8233 41.5864 94.8233 41.0395C94.8233 40.5851 94.9461 40.1887 95.1918 39.8506C95.4402 39.5097 95.7731 39.2455 96.1905 39.0579C96.6106 38.8677 97.0796 38.7726 97.5974 38.7726C98.1206 38.7726 98.5856 38.8664 98.9924 39.054C99.3993 39.2389 99.7217 39.4926 99.9594 39.8149C100.2 40.1372 100.327 40.5031 100.34 40.9127H99.3888ZM102.067 47V38.8836H106.965V39.7554H103.05V42.4979H106.712V43.3698H103.05V46.1281H107.029V47H102.067ZM111.241 47H108.737V38.8836H111.352C112.14 38.8836 112.813 39.046 113.374 39.371C113.934 39.6934 114.363 40.157 114.662 40.7621C114.96 41.3645 115.109 42.0857 115.109 42.9259C115.109 43.7714 114.959 44.4993 114.658 45.1096C114.356 45.7173 113.918 46.1849 113.342 46.5125C112.766 46.8375 112.066 47 111.241 47ZM109.72 46.1281H111.178C111.849 46.1281 112.405 45.9987 112.846 45.7397C113.288 45.4808 113.617 45.1122 113.833 44.634C114.05 44.1558 114.158 43.5864 114.158 42.9259C114.158 42.2707 114.051 41.7066 113.837 41.2337C113.623 40.7581 113.304 40.3935 112.878 40.1399C112.453 39.8836 111.923 39.7554 111.289 39.7554H109.72V46.1281ZM122.084 38.8836H123.067V44.2575C123.067 44.8124 122.937 45.3078 122.675 45.7437C122.416 46.177 122.05 46.5191 121.577 46.7701C121.104 47.0185 120.549 47.1427 119.913 47.1427C119.276 47.1427 118.721 47.0185 118.248 46.7701C117.775 46.5191 117.408 46.177 117.146 45.7437C116.888 45.3078 116.758 44.8124 116.758 44.2575V38.8836H117.741V44.1783C117.741 44.5746 117.828 44.9273 118.002 45.2364C118.177 45.5429 118.425 45.7846 118.748 45.9617C119.073 46.136 119.461 46.2232 119.913 46.2232C120.364 46.2232 120.753 46.136 121.078 45.9617C121.403 45.7846 121.651 45.5429 121.823 45.2364C121.997 44.9273 122.084 44.5746 122.084 44.1783V38.8836ZM131.561 41.4199H130.578C130.52 41.1372 130.419 40.8889 130.273 40.6749C130.131 40.4609 129.956 40.2812 129.75 40.1359C129.547 39.9879 129.321 39.877 129.072 39.803C128.824 39.729 128.565 39.692 128.296 39.692C127.804 39.692 127.359 39.8162 126.96 40.0646C126.564 40.3129 126.248 40.6788 126.013 41.1623C125.78 41.6458 125.664 42.239 125.664 42.9418C125.664 43.6446 125.78 44.2377 126.013 44.7212C126.248 45.2047 126.564 45.5706 126.96 45.819C127.359 46.0673 127.804 46.1915 128.296 46.1915C128.565 46.1915 128.824 46.1545 129.072 46.0806C129.321 46.0066 129.547 45.8969 129.75 45.7516C129.956 45.6037 130.131 45.4227 130.273 45.2087C130.419 44.992 130.52 44.7437 130.578 44.4636H131.561C131.487 44.8784 131.353 45.2496 131.157 45.5772C130.962 45.9049 130.718 46.1836 130.428 46.4135C130.137 46.6407 129.811 46.8137 129.449 46.9326C129.09 47.0515 128.705 47.111 128.296 47.111C127.603 47.111 126.988 46.9419 126.449 46.6037C125.91 46.2655 125.486 45.7846 125.177 45.1611C124.868 44.5376 124.713 43.7978 124.713 42.9418C124.713 42.0857 124.868 41.346 125.177 40.7224C125.486 40.0989 125.91 39.6181 126.449 39.2799C126.988 38.9417 127.603 38.7726 128.296 38.7726C128.705 38.7726 129.09 38.832 129.449 38.9509C129.811 39.0698 130.137 39.2442 130.428 39.4741C130.718 39.7013 130.962 39.9787 131.157 40.3063C131.353 40.6313 131.487 41.0025 131.561 41.4199Z" fill="black"/>
<line x1="147.11" y1="22.2942" x2="147.11" y2="49.7058" stroke="black" stroke-width="0.319803"/>
<path fill-rule="evenodd" clip-rule="evenodd" d="M187.86 17.4919C193.382 14.7753 198.874 12.7125 204.293 12.3018C204.335 11.3535 204.377 10.4131 204.419 9.48062C198.993 10.0508 193.51 11.8889 187.997 14.4255C187.951 15.4454 187.906 16.4677 187.86 17.4919Z" fill="#004394"/>
<path fill-rule="evenodd" clip-rule="evenodd" d="M204.353 14.4344C199.285 14.7247 194.148 16.5793 188.981 19.0932C188.936 20.1081 188.89 21.1263 188.844 22.1479C194.017 19.5082 199.161 17.499 204.224 17.3271C204.267 16.3552 204.31 15.3908 204.353 14.4344Z" fill="#FCB900"/>
<path fill-rule="evenodd" clip-rule="evenodd" d="M186.297 28.6894C192.721 25.1167 199.123 22.034 205.368 22.4626C205.413 21.4605 205.458 20.4648 205.502 19.4751C199.25 19.1947 192.856 22.0824 186.436 25.5687C186.39 26.6078 186.343 27.648 186.297 28.6894Z" fill="#FCB900"/>
<path fill-rule="evenodd" clip-rule="evenodd" d="M205.939 29.9955C205.893 31.0239 205.847 32.0572 205.8 33.0959C192.148 31.0963 177.613 48.8569 163.961 46.8675L164.549 43.8665C178.069 45.438 192.443 27.8879 205.939 29.9955Z" fill="#E63114"/>
<path fill-rule="evenodd" clip-rule="evenodd" d="M208.519 36.0119C208.472 37.0569 208.426 38.102 208.379 39.147C200.671 36.18 192.61 41.0906 184.578 45.3852C176.582 49.793 168.613 53.5896 160.9 51.6656L161.484 48.6831C176.769 53.2597 193.27 30.6263 208.519 36.0119Z" fill="#E63114"/>
<path fill-rule="evenodd" clip-rule="evenodd" d="M207.049 41.1121C207.003 42.1627 206.955 43.2156 206.908 44.2709C199.509 42.3977 191.816 47.1008 184.163 50.9293C176.529 54.9214 168.933 58.0439 161.517 57.1715L162.103 54.175C169.359 55.274 176.816 51.8596 184.303 47.8001C191.965 43.7762 199.658 39.078 207.049 41.1121Z" fill="#E63114"/>
<path fill-rule="evenodd" clip-rule="evenodd" d="M179.601 65.4276C179.557 66.4066 179.514 67.3815 179.47 68.3522C175.079 69.7164 170.708 70.6047 166.336 71.5325L166.87 68.8096C171.098 68.0199 175.339 66.9589 179.601 65.4276Z" fill="#007521"/>
<path fill-rule="evenodd" clip-rule="evenodd" d="M205.073 49.374C197.994 48.7451 190.691 53.16 183.438 56.4344C176.016 60.0154 168.647 62.4045 161.387 62.3648L161.977 59.3498C169.068 59.7816 176.301 57.0409 183.577 53.3223C190.841 49.7943 198.149 45.2924 205.217 46.141L205.073 49.374Z" fill="#007521"/>
<path fill-rule="evenodd" clip-rule="evenodd" d="M195.213 56.8205C190.657 58.4375 186.07 60.7379 181.507 62.508C175.728 64.8596 169.988 66.3607 164.277 67.1829L164.836 64.3318C170.392 63.742 176 61.9931 181.642 59.4712C186.214 57.5028 190.809 55.0288 195.367 53.3812L195.213 56.8205Z" fill="#007521"/>
<path fill-rule="evenodd" clip-rule="evenodd" d="M202.418 4.95059C202.378 5.83942 202.338 6.73739 202.298 7.64464C198.165 8.33018 194.003 9.65047 189.823 11.3783L189.956 8.4042C194.128 6.85293 198.282 5.69658 202.418 4.95059Z" fill="#004394"/>
<path fill-rule="evenodd" clip-rule="evenodd" d="M195.519 1.92362C197.495 1.41322 199.471 0.944877 201.447 0.467468C201.439 1.33518 201.432 2.21158 201.425 3.09703C199.417 3.53125 197.409 4.02536 195.4 4.6002L195.519 1.92362Z" fill="#004394"/>
<path fill-rule="evenodd" clip-rule="evenodd" d="M204.441 27.5579C196.436 27.157 188.149 33.0499 179.934 37.3516L180.075 34.1984C188.29 29.888 196.568 24.184 204.576 24.5269C204.531 25.53 204.486 26.5405 204.441 27.5579Z" fill="#FCB900"/>
<path fill-rule="evenodd" clip-rule="evenodd" d="M217.393 48.5148H215.251L214.807 49.5227H214.214L216.04 45.4909H216.61L218.442 49.5227H217.837L217.393 48.5148ZM217.192 48.054L216.322 46.0785L215.452 48.054H217.192Z" fill="#1B1918"/>
<path fill-rule="evenodd" clip-rule="evenodd" d="M222.995 49.8912C222.864 50.0449 222.713 50.1619 222.54 50.2426C222.367 50.323 222.181 50.3637 221.981 50.3637C221.728 50.3637 221.491 50.3032 221.27 50.1822C221.049 50.0613 220.797 49.8548 220.513 49.5628C220.133 49.5436 219.79 49.4419 219.485 49.2577C219.179 49.0734 218.941 48.8288 218.771 48.5235C218.6 48.2184 218.514 47.8793 218.514 47.5069C218.514 47.1191 218.607 46.7676 218.793 46.4528C218.98 46.1379 219.236 45.8912 219.562 45.7127C219.889 45.5342 220.255 45.4448 220.663 45.4448C221.065 45.4448 221.43 45.5342 221.757 45.7127C222.083 45.8912 222.338 46.1371 222.523 46.4498C222.707 46.7631 222.799 47.1153 222.799 47.5069C222.799 47.8371 222.733 48.1405 222.6 48.4168C222.468 48.6933 222.282 48.9259 222.042 49.1135C221.802 49.3021 221.526 49.4325 221.215 49.5052C221.35 49.6474 221.479 49.75 221.604 49.8135C221.729 49.8768 221.857 49.9086 221.987 49.9086C222.271 49.9086 222.517 49.7934 222.724 49.5628L222.995 49.8912ZM219.294 48.2987C219.431 48.535 219.619 48.7204 219.859 48.8547C220.099 48.9891 220.367 49.056 220.663 49.056C220.954 49.056 221.219 48.9891 221.457 48.8547C221.695 48.7204 221.883 48.535 222.019 48.2987C222.155 48.0627 222.223 47.7986 222.223 47.5069C222.223 47.2152 222.155 46.9508 222.019 46.7149C221.883 46.4788 221.695 46.2936 221.457 46.1591C221.219 46.0247 220.954 45.9575 220.663 45.9575C220.367 45.9575 220.099 46.0247 219.859 46.1591C219.619 46.2936 219.431 46.4788 219.294 46.7149C219.158 46.9508 219.09 47.2152 219.09 47.5069C219.09 47.7986 219.158 48.0627 219.294 48.2987Z" fill="#1B1918"/>
<path fill-rule="evenodd" clip-rule="evenodd" d="M223.999 49.1081C223.7 48.8007 223.55 48.3591 223.55 47.7831V45.491H224.126V47.7604C224.126 48.6242 224.504 49.0561 225.26 49.0561C225.629 49.0561 225.911 48.9495 226.107 48.7364C226.303 48.5234 226.401 48.198 226.401 47.7604V45.491H226.959V47.7831C226.959 48.363 226.81 48.8056 226.51 49.1108C226.211 49.4162 225.792 49.5686 225.255 49.5686C224.717 49.5686 224.298 49.4152 223.999 49.1081Z" fill="#1B1918"/>
<path fill-rule="evenodd" clip-rule="evenodd" d="M228.046 45.491H228.622V49.5227H228.046V45.491Z" fill="#1B1918"/>
<path fill-rule="evenodd" clip-rule="evenodd" d="M232.182 45.9922H230.799V45.4909H234.134V45.9922H232.752V49.5227H232.182V45.9922Z" fill="#1B1918"/>
<path fill-rule="evenodd" clip-rule="evenodd" d="M237.636 49.0216V49.5226H234.71V45.4909H237.555V45.9922H235.286V47.2303H237.308V47.7198H235.286V49.0216H237.636Z" fill="#1B1918"/>
<path fill-rule="evenodd" clip-rule="evenodd" d="M242.151 49.5227L242.145 46.5852L240.688 49.0332H240.423L238.966 46.6026V49.5227H238.413V45.4909H238.886L240.567 48.3248L242.226 45.4909H242.698L242.704 49.5227H242.151Z" fill="#1B1918"/>
<path fill-rule="evenodd" clip-rule="evenodd" d="M246.171 46.2514H244.881V45.4909H248.394V46.2514H247.105V49.5226H246.171V46.2514Z" fill="#1B1918"/>
<path fill-rule="evenodd" clip-rule="evenodd" d="M251.425 49.5227L250.648 48.3996H250.602H249.79V49.5227H248.856V45.4909H250.602C250.959 45.4909 251.269 45.5507 251.532 45.6698C251.795 45.7886 251.998 45.9576 252.14 46.1766C252.282 46.3953 252.353 46.6543 252.353 46.9537C252.353 47.2534 252.281 47.5116 252.137 47.7285C251.993 47.9455 251.788 48.1115 251.523 48.2267L252.427 49.5227H251.425ZM251.189 46.4328C251.043 46.3119 250.83 46.2514 250.55 46.2514H249.79V47.6565H250.55C250.83 47.6565 251.043 47.5954 251.189 47.4722C251.335 47.3494 251.408 47.1766 251.408 46.9537C251.408 46.7273 251.335 46.5537 251.189 46.4328Z" fill="#1B1918"/>
<path fill-rule="evenodd" clip-rule="evenodd" d="M255.893 48.6589H254.021L253.664 49.5227H252.708L254.505 45.491H255.426L257.229 49.5227H256.249L255.893 48.6589ZM255.599 47.9504L254.959 46.4067L254.32 47.9504H255.599Z" fill="#1B1918"/>
<path fill-rule="evenodd" clip-rule="evenodd" d="M261.153 47.7918C261.283 47.963 261.348 48.1729 261.348 48.4225C261.348 48.7759 261.211 49.0473 260.937 49.2375C260.662 49.4275 260.262 49.5226 259.736 49.5226H257.651V45.4908H259.621C260.112 45.4908 260.49 45.5851 260.753 45.7733C261.015 45.9614 261.147 46.2167 261.147 46.5392C261.147 46.7351 261.1 46.9098 261.006 47.0635C260.912 47.2168 260.78 47.3378 260.612 47.4262C260.842 47.4992 261.022 47.6211 261.153 47.7918ZM258.578 46.1936V47.1439H259.506C259.736 47.1439 259.911 47.1037 260.03 47.023C260.149 46.9424 260.208 46.8235 260.208 46.6659C260.208 46.5087 260.149 46.3903 260.03 46.3118C259.911 46.2331 259.736 46.1936 259.506 46.1936H258.578ZM260.223 48.6991C260.347 48.6183 260.41 48.4935 260.41 48.3247C260.41 47.9906 260.162 47.8236 259.667 47.8236H258.578V48.82H259.667C259.913 48.82 260.098 48.7798 260.223 48.6991Z" fill="#1B1918"/>
<path fill-rule="evenodd" clip-rule="evenodd" d="M264.67 48.6589H262.798L262.441 49.5227H261.485L263.282 45.491H264.204L266.007 49.5227H265.027L264.67 48.6589ZM264.376 47.9504L263.737 46.4067L263.098 47.9504H264.376Z" fill="#1B1918"/>
<path fill-rule="evenodd" clip-rule="evenodd" d="M266.428 45.4909H267.361V48.7624H269.383V49.5226H266.428V45.4909Z" fill="#1B1918"/>
<path fill-rule="evenodd" clip-rule="evenodd" d="M273.554 45.4909V49.5226H272.621V47.8696H270.789V49.5226H269.856V45.4909H270.789V47.0805H272.621V45.4909H273.554Z" fill="#1B1918"/>
<path fill-rule="evenodd" clip-rule="evenodd" d="M275.335 49.321C274.999 49.1405 274.736 48.892 274.546 48.5752C274.356 48.2585 274.261 47.9026 274.261 47.5069C274.261 47.1114 274.356 46.7554 274.546 46.4386C274.736 46.1218 274.999 45.8733 275.335 45.6924C275.671 45.5121 276.048 45.422 276.467 45.422C276.885 45.422 277.262 45.5121 277.596 45.6924C277.93 45.8733 278.193 46.1218 278.385 46.4386C278.576 46.7554 278.673 47.1114 278.673 47.5069C278.673 47.9026 278.576 48.2585 278.385 48.5752C278.193 48.892 277.93 49.1405 277.596 49.321C277.262 49.5017 276.885 49.5918 276.467 49.5918C276.048 49.5918 275.671 49.5017 275.335 49.321ZM277.112 48.6328C277.304 48.5234 277.454 48.3707 277.564 48.1749C277.673 47.9791 277.728 47.7564 277.728 47.5069C277.728 47.2574 277.673 47.0345 277.564 46.8386C277.454 46.6429 277.304 46.4903 277.112 46.3806C276.92 46.2713 276.705 46.2167 276.467 46.2167C276.229 46.2167 276.014 46.2713 275.822 46.3806C275.63 46.4903 275.479 46.6429 275.37 46.8386C275.26 47.0345 275.206 47.2574 275.206 47.5069C275.206 47.7564 275.26 47.9791 275.37 48.1749C275.479 48.3707 275.63 48.5234 275.822 48.6328C276.014 48.7422 276.229 48.7969 276.467 48.7969C276.705 48.7969 276.92 48.7422 277.112 48.6328Z" fill="#1B1918"/>
<path fill-rule="evenodd" clip-rule="evenodd" d="M279.102 49.4449C279.026 49.3699 278.987 49.2751 278.987 49.16C278.987 49.0487 279.026 48.9554 279.102 48.8804C279.179 48.8056 279.271 48.7682 279.379 48.7682C279.486 48.7682 279.577 48.8045 279.65 48.8775C279.723 48.9506 279.759 49.0448 279.759 49.16C279.759 49.2751 279.722 49.3699 279.647 49.4449C279.572 49.5199 279.483 49.5571 279.379 49.5571C279.271 49.5571 279.179 49.5199 279.102 49.4449Z" fill="#1B1918"/>
<path fill-rule="evenodd" clip-rule="evenodd" d="M217.393 55.1816H215.251L214.807 56.1895H214.214L216.04 52.1577H216.61L218.442 56.1895H217.837L217.393 55.1816ZM217.192 54.7208L216.322 52.7453L215.452 54.7208H217.192Z" fill="#1B1918"/>
<path fill-rule="evenodd" clip-rule="evenodd" d="M222.995 56.5581C222.864 56.7118 222.713 56.8289 222.54 56.9096C222.367 56.99 222.181 57.0306 221.981 57.0306C221.728 57.0306 221.491 56.97 221.27 56.8491C221.049 56.7282 220.797 56.5218 220.513 56.2298C220.133 56.2105 219.79 56.1089 219.485 55.9245C219.179 55.7403 218.941 55.4957 218.771 55.1904C218.6 54.8853 218.514 54.5462 218.514 54.1739C218.514 53.786 218.607 53.4345 218.793 53.1196C218.98 52.8048 219.236 52.5582 219.562 52.3796C219.889 52.2012 220.255 52.1118 220.663 52.1118C221.065 52.1118 221.43 52.2012 221.757 52.3796C222.083 52.5582 222.338 52.8038 222.523 53.1168C222.707 53.43 222.799 53.7822 222.799 54.1739C222.799 54.504 222.733 54.8073 222.6 55.0836C222.468 55.3602 222.282 55.5928 222.042 55.7805C221.802 55.969 221.526 56.0995 221.215 56.1721C221.35 56.3143 221.479 56.417 221.604 56.4802C221.729 56.5437 221.857 56.5755 221.987 56.5755C222.271 56.5755 222.517 56.4603 222.724 56.2298L222.995 56.5581ZM219.294 54.9657C219.431 55.2019 219.619 55.3872 219.859 55.5216C220.099 55.6561 220.367 55.7229 220.663 55.7229C220.954 55.7229 221.219 55.6561 221.457 55.5216C221.695 55.3872 221.883 55.2019 222.019 54.9657C222.155 54.7296 222.223 54.4655 222.223 54.1739C222.223 53.8822 222.155 53.6178 222.019 53.3818C221.883 53.1457 221.695 52.9605 221.457 52.8261C221.219 52.6916 220.954 52.6243 220.663 52.6243C220.367 52.6243 220.099 52.6916 219.859 52.8261C219.619 52.9605 219.431 53.1457 219.294 53.3818C219.158 53.6178 219.09 53.8822 219.09 54.1739C219.09 54.4655 219.158 54.7296 219.294 54.9657Z" fill="#1B1918"/>
<path fill-rule="evenodd" clip-rule="evenodd" d="M223.999 55.7751C223.7 55.4676 223.55 55.0261 223.55 54.45V52.1578H224.126V54.4272C224.126 55.2911 224.504 55.723 225.26 55.723C225.629 55.723 225.911 55.6165 226.107 55.4033C226.303 55.1903 226.401 54.865 226.401 54.4272V52.1578H226.959V54.45C226.959 55.0299 226.81 55.4725 226.51 55.7775C226.211 56.0831 225.792 56.2355 225.255 56.2355C224.717 56.2355 224.298 56.0821 223.999 55.7751Z" fill="#1B1918"/>
<path fill-rule="evenodd" clip-rule="evenodd" d="M228.046 52.1578H228.622V56.1896H228.046V52.1578Z" fill="#1B1918"/>
<path fill-rule="evenodd" clip-rule="evenodd" d="M232.182 52.6591H230.799V52.1577H234.134V52.6591H232.752V56.1895H232.182V52.6591Z" fill="#1B1918"/>
<path fill-rule="evenodd" clip-rule="evenodd" d="M237.636 55.6885V56.1895H234.71V52.1577H237.555V52.6591H235.286V53.8973H237.308V54.3866H235.286V55.6885H237.636Z" fill="#1B1918"/>
<path fill-rule="evenodd" clip-rule="evenodd" d="M242.151 56.1896L242.145 53.2522L240.688 55.7001H240.423L238.966 53.2695V56.1896H238.413V52.1578H238.886L240.567 54.9917L242.226 52.1578H242.698L242.704 56.1896H242.151Z" fill="#1B1918"/>
<path fill-rule="evenodd" clip-rule="evenodd" d="M246.269 52.9068V53.9722H248.135V54.7207H246.269V56.1896H245.336V52.1578H248.383V52.9068H246.269Z" fill="#1B1918"/>
<path fill-rule="evenodd" clip-rule="evenodd" d="M249.442 55.7805C249.122 55.4622 248.961 55.007 248.961 54.4156V52.1578H249.894V54.381C249.894 55.103 250.194 55.4637 250.793 55.4637C251.084 55.4637 251.307 55.3766 251.461 55.202C251.614 55.027 251.691 54.7537 251.691 54.381V52.1578H252.613V54.4156C252.613 55.007 252.453 55.4622 252.132 55.7805C251.811 56.0995 251.363 56.2587 250.787 56.2587C250.211 56.2587 249.763 56.0995 249.442 55.7805Z" fill="#1B1918"/>
<path fill-rule="evenodd" clip-rule="evenodd" d="M254.349 52.9184H253.06V52.1578H256.573V52.9184H255.283V56.1896H254.349V52.9184Z" fill="#1B1918"/>
<path fill-rule="evenodd" clip-rule="evenodd" d="M257.5 55.7805C257.179 55.4622 257.019 55.007 257.019 54.4156V52.1578H257.952V54.381C257.952 55.103 258.252 55.4637 258.85 55.4637C259.142 55.4637 259.365 55.3766 259.519 55.202C259.672 55.027 259.749 54.7537 259.749 54.381V52.1578H260.671V54.4156C260.671 55.007 260.51 55.4622 260.189 55.7805C259.869 56.0995 259.421 56.2587 258.845 56.2587C258.269 56.2587 257.82 56.0995 257.5 55.7805Z" fill="#1B1918"/>
<path fill-rule="evenodd" clip-rule="evenodd" d="M264.157 56.1896L263.379 55.0665H263.333H262.521V56.1896H261.588V52.1578H263.333C263.69 52.1578 264 52.2176 264.263 52.3366C264.526 52.4555 264.729 52.6243 264.871 52.8435C265.013 53.0622 265.084 53.3212 265.084 53.6208C265.084 53.9203 265.012 54.1787 264.868 54.3954C264.724 54.6125 264.52 54.7785 264.255 54.8935L265.159 56.1896H264.157ZM263.921 53.0997C263.775 52.9788 263.562 52.9183 263.281 52.9183H262.521V54.3234H263.281C263.562 54.3234 263.775 54.2623 263.921 54.139C264.066 54.0163 264.139 53.8437 264.139 53.6208C264.139 53.3942 264.066 53.2206 263.921 53.0997Z" fill="#1B1918"/>
<path fill-rule="evenodd" clip-rule="evenodd" d="M266.614 55.9879C266.277 55.8076 266.014 55.5589 265.824 55.2421C265.634 54.9255 265.539 54.5693 265.539 54.1738C265.539 53.7783 265.634 53.4223 265.824 53.1055C266.014 52.7889 266.277 52.5402 266.614 52.3593C266.949 52.179 267.327 52.0889 267.745 52.0889C268.164 52.0889 268.54 52.179 268.874 52.3593C269.208 52.5402 269.471 52.7889 269.663 53.1055C269.855 53.4223 269.951 53.7783 269.951 54.1738C269.951 54.5693 269.855 54.9255 269.663 55.2421C269.471 55.5589 269.208 55.8076 268.874 55.9879C268.54 56.1687 268.164 56.2587 267.745 56.2587C267.327 56.2587 266.949 56.1687 266.614 55.9879ZM268.39 55.2997C268.582 55.1904 268.733 55.0376 268.842 54.8417C268.952 54.646 269.007 54.4234 269.007 54.1738C269.007 53.9243 268.952 53.7014 268.842 53.5055C268.733 53.3098 268.582 53.1572 268.39 53.0476C268.198 52.9382 267.983 52.8836 267.745 52.8836C267.507 52.8836 267.292 52.9382 267.1 53.0476C266.908 53.1572 266.757 53.3098 266.648 53.5055C266.539 53.7014 266.484 53.9243 266.484 54.1738C266.484 54.4234 266.539 54.646 266.648 54.8417C266.757 55.0376 266.908 55.1904 267.1 55.2997C267.292 55.4091 267.507 55.4636 267.745 55.4636C267.983 55.4636 268.198 55.4091 268.39 55.2997Z" fill="#1B1918"/>
<path fill-rule="evenodd" clip-rule="evenodd" d="M270.38 56.1117C270.303 56.0367 270.265 55.9419 270.265 55.8268C270.265 55.7156 270.303 55.6223 270.38 55.5473C270.457 55.4724 270.549 55.4351 270.657 55.4351C270.764 55.4351 270.854 55.4714 270.927 55.5444C271 55.6174 271.037 55.7117 271.037 55.8268C271.037 55.9419 270.999 56.0367 270.925 56.1117C270.85 56.1868 270.76 56.2239 270.657 56.2239C270.549 56.2239 270.457 56.1868 270.38 56.1117Z" fill="#1B1918"/>
<path fill-rule="evenodd" clip-rule="evenodd" d="M216.442 17.0379C216.777 16.8569 217.162 16.7661 217.594 16.7661C218.254 16.7661 218.818 16.9999 219.285 17.4675L220.004 16.7661C219.718 16.4391 219.364 16.1908 218.944 16.0213C218.523 15.8519 218.055 15.7673 217.541 15.7673C216.91 15.7673 216.342 15.903 215.837 16.1747C215.331 16.4465 214.935 16.8219 214.649 17.3009C214.363 17.7802 214.22 18.3204 214.22 18.9225C214.22 19.5241 214.363 20.0648 214.649 20.5435C214.935 21.0228 215.33 21.398 215.832 21.6698C216.335 21.9416 216.899 22.0775 217.524 22.0775C217.968 22.0775 218.4 22.01 218.821 21.8759C219.242 21.7414 219.61 21.5485 219.925 21.2974V18.8523H218.847V20.7629C218.485 20.9732 218.064 21.0784 217.585 21.0784C217.159 21.0784 216.777 20.9848 216.442 20.7979C216.105 20.6107 215.842 20.3538 215.653 20.0265C215.463 19.6994 215.368 19.3312 215.368 18.9225C215.368 18.5014 215.463 18.1278 215.653 17.8004C215.842 17.4734 216.105 17.2192 216.442 17.0379Z" fill="#1B1918"/>
<path fill-rule="evenodd" clip-rule="evenodd" d="M226.332 16.1748C225.829 15.903 225.265 15.7672 224.64 15.7672C224.015 15.7672 223.451 15.903 222.949 16.1748C222.446 16.4465 222.051 16.8235 221.765 17.305C221.479 17.7871 221.336 18.3263 221.336 18.9224C221.336 19.5183 221.479 20.0574 221.765 20.5393C222.051 21.0215 222.446 21.3979 222.949 21.6697C223.451 21.9415 224.015 22.0776 224.64 22.0776C225.265 22.0776 225.829 21.9415 226.332 21.6697C226.834 21.3979 227.228 21.0227 227.515 20.5436C227.801 20.0647 227.944 19.524 227.944 18.9224C227.944 18.3204 227.801 17.7801 227.515 17.301C227.228 16.8218 226.834 16.4465 226.332 16.1748ZM226.516 20.031C226.329 20.3611 226.072 20.6181 225.744 20.8022C225.417 20.9863 225.049 21.0783 224.64 21.0783C224.231 21.0783 223.863 20.9863 223.536 20.8022C223.208 20.6181 222.952 20.3611 222.764 20.031C222.578 19.701 222.484 19.3311 222.484 18.9224C222.484 18.5133 222.578 18.1438 222.764 17.8136C222.952 17.4836 223.208 17.2263 223.536 17.0425C223.863 16.8585 224.231 16.7662 224.64 16.7662C225.049 16.7662 225.417 16.8585 225.744 17.0425C226.072 17.2263 226.329 17.4836 226.516 17.8136C226.703 18.1438 226.796 18.5133 226.796 18.9224C226.796 19.3311 226.703 19.701 226.516 20.031Z" fill="#1B1918"/>
<path fill-rule="evenodd" clip-rule="evenodd" d="M231.721 20.5876L229.679 15.8547H228.443L231.125 21.9898H232.247L234.92 15.8547H233.781L231.721 20.5876Z" fill="#1B1918"/>
<path fill-rule="evenodd" clip-rule="evenodd" d="M237.059 19.3431H240.022V18.4052H237.059V16.8101H240.398V15.8547H235.92V21.9897H240.521V21.0343H237.059V19.3431Z" fill="#1B1918"/>
<path fill-rule="evenodd" clip-rule="evenodd" d="M246.941 19.2289C247.165 18.896 247.278 18.4986 247.278 18.0372C247.278 17.5872 247.173 17.1988 246.963 16.8712C246.752 16.5442 246.45 16.2932 246.055 16.1179C245.661 15.9426 245.198 15.8547 244.666 15.8547H242.142V21.9897H243.282V20.2017H244.666C244.771 20.2017 244.85 20.1991 244.903 20.193L246.156 21.9897H247.383L245.972 19.974C246.393 19.8104 246.716 19.5621 246.941 19.2289ZM244.614 19.2639H243.282V16.8188H244.614C245.11 16.8188 245.487 16.9241 245.744 17.1343C246.001 17.3446 246.13 17.6457 246.13 18.0372C246.13 18.4285 246.001 18.7311 245.744 18.9444C245.487 19.1575 245.11 19.2639 244.614 19.2639Z" fill="#1B1918"/>
<path fill-rule="evenodd" clip-rule="evenodd" d="M253.22 20.0091L249.837 15.8548H248.899V21.9898H250.03V17.8355L253.413 21.9898H254.351V15.8548H253.22V20.0091Z" fill="#1B1918"/>
<path fill-rule="evenodd" clip-rule="evenodd" d="M260.906 16.1748C260.404 15.903 259.84 15.7672 259.215 15.7672C258.589 15.7672 258.026 15.903 257.524 16.1748C257.021 16.4465 256.626 16.8235 256.34 17.305C256.054 17.7871 255.911 18.3263 255.911 18.9224C255.911 19.5183 256.054 20.0574 256.34 20.5393C256.626 21.0215 257.021 21.3979 257.524 21.6697C258.026 21.9415 258.589 22.0776 259.215 22.0776C259.84 22.0776 260.404 21.9415 260.906 21.6697C261.409 21.3979 261.803 21.0227 262.089 20.5436C262.376 20.0647 262.519 19.524 262.519 18.9224C262.519 18.3204 262.376 17.7801 262.089 17.301C261.803 16.8218 261.409 16.4465 260.906 16.1748ZM261.09 20.031C260.903 20.3611 260.646 20.6181 260.319 20.8022C259.992 20.9863 259.624 21.0783 259.215 21.0783C258.806 21.0783 258.438 20.9863 258.111 20.8022C257.783 20.6181 257.526 20.3611 257.339 20.031C257.152 19.701 257.059 19.3311 257.059 18.9224C257.059 18.5133 257.152 18.1438 257.339 17.8136C257.526 17.4836 257.783 17.2263 258.111 17.0425C258.438 16.8585 258.806 16.7662 259.215 16.7662C259.624 16.7662 259.992 16.8585 260.319 17.0425C260.646 17.2263 260.903 17.4836 261.09 17.8136C261.277 18.1438 261.371 18.5133 261.371 18.9224C261.371 19.3311 261.277 19.701 261.09 20.031Z" fill="#1B1918"/>
<path fill-rule="evenodd" clip-rule="evenodd" d="M271.274 16.2362C270.766 15.9819 270.184 15.8547 269.53 15.8547H266.848V21.9898H269.53C270.184 21.9898 270.766 21.8627 271.274 21.6087C271.782 21.3543 272.177 20.995 272.457 20.5303C272.738 20.066 272.878 19.5299 272.878 18.9224C272.878 18.3145 272.738 17.7786 272.457 17.3142C272.177 16.8496 271.782 16.4902 271.274 16.2362ZM271.454 20.031C271.27 20.3493 271.007 20.595 270.665 20.7671C270.323 20.9394 269.927 21.0256 269.478 21.0256H267.988V16.8189H269.478C269.927 16.8189 270.323 16.9051 270.665 17.0774C271.007 17.2497 271.27 17.4952 271.454 17.8135C271.638 18.1324 271.73 18.5014 271.73 18.9224C271.73 19.3431 271.638 19.7125 271.454 20.031Z" fill="#1B1918"/>
<path fill-rule="evenodd" clip-rule="evenodd" d="M280.179 17.3009C279.893 16.8219 279.498 16.4465 278.996 16.1747C278.493 15.903 277.929 15.7673 277.304 15.7673C276.679 15.7673 276.115 15.903 275.613 16.1747C275.11 16.4465 274.715 16.8234 274.429 17.3051C274.143 17.7872 274 18.3262 274 18.9225C274 19.5183 274.143 20.0573 274.429 20.5393C274.715 21.0214 275.11 21.398 275.613 21.6698C276.115 21.9416 276.679 22.0775 277.304 22.0775C277.929 22.0775 278.493 21.9416 278.996 21.6698C279.498 21.398 279.893 21.0228 280.179 20.5435C280.465 20.0648 280.608 19.5241 280.608 18.9225C280.608 18.3204 280.465 17.7802 280.179 17.3009ZM279.18 20.031C278.993 20.3612 278.736 20.6182 278.408 20.8021C278.081 20.9864 277.713 21.0784 277.304 21.0784C276.895 21.0784 276.527 20.9864 276.2 20.8021C275.873 20.6182 275.616 20.3612 275.428 20.031C275.242 19.701 275.148 19.3312 275.148 18.9225C275.148 18.5133 275.242 18.1439 275.428 17.8135C275.616 17.4836 275.873 17.2264 276.2 17.0424C276.527 16.8584 276.895 16.7661 277.304 16.7661C277.713 16.7661 278.081 16.8584 278.408 17.0424C278.736 17.2264 278.993 17.4836 279.18 17.8135C279.367 18.1439 279.46 18.5133 279.46 18.9225C279.46 19.3312 279.367 19.701 279.18 20.031Z" fill="#1B1918"/>
<path fill-rule="evenodd" clip-rule="evenodd" d="M226.554 25.2796C227.74 25.8138 228.656 26.5765 229.3 27.5681C229.944 28.5599 230.267 29.7258 230.267 31.0649C230.267 32.4039 229.944 33.5653 229.3 34.5482C228.656 35.5318 227.74 36.29 226.554 36.8243C225.367 37.3581 223.969 37.6253 222.358 37.6253H219.256V42.2786H214.221V24.4787H222.358C223.969 24.4787 225.367 24.7458 226.554 25.2796ZM224.392 32.9845C224.918 32.5355 225.181 31.8956 225.181 31.0649C225.181 30.2342 224.918 29.5899 224.392 29.132C223.867 28.6746 223.087 28.4455 222.053 28.4455H219.256V33.6585H222.053C223.087 33.6585 223.867 33.434 224.392 32.9845Z" fill="#007521"/>
<path fill-rule="evenodd" clip-rule="evenodd" d="M231.182 24.4787H236.216V42.2785H231.182V24.4787Z" fill="#007521"/>
<path fill-rule="evenodd" clip-rule="evenodd" d="M251.219 38.8202H243.692L242.293 42.2786H237.157L245.014 24.4787H249.973L257.855 42.2786H252.617L251.219 38.8202ZM249.744 35.1077L247.455 29.4117L245.167 35.1077H249.744Z" fill="#007521"/>
<path fill-rule="evenodd" clip-rule="evenodd" d="M258.911 40.473C257.444 39.0324 256.711 36.9896 256.711 34.3449V24.4787H261.746V34.1922C261.746 37.0405 262.873 38.4641 265.128 38.4641C267.365 38.4641 268.484 37.0405 268.484 34.1922V24.4787H273.443V34.3449C273.443 36.9896 272.709 39.0324 271.243 40.473C269.777 41.9142 267.721 42.6346 265.077 42.6346C262.432 42.6346 260.377 41.9142 258.911 40.473Z" fill="#007521"/>
<path fill-rule="evenodd" clip-rule="evenodd" d="M279.851 24.4241H274.816V27.6596L279.851 24.4241Z" fill="#007521"/>
<path fill-rule="evenodd" clip-rule="evenodd" d="M274.816 29.1221V42.2239H279.851V25.8865L274.816 29.1221Z" fill="#007521"/>
</svg>
